<?xml version="1.0" encoding="UTF-8"?>
<svg width="62px" height="61px" viewBox="0 0 62 61" version="1.1" xmlns="http://www.w3.org/2000/svg" xmlns:xlink="http://www.w3.org/1999/xlink">
    <title>flag-vietnam</title>
    <defs>
        <path d="M0.484761905,29.5134375 C0.484761905,45.5746875 13.7114286,58.5946875 30.0266667,58.5946875 L30.0266667,58.5946875 C46.3409524,58.5946875 59.567619,45.5746875 59.567619,29.5134375 L59.567619,29.5134375 C59.567619,13.453125 46.3409524,0.4340625 30.0266667,0.4340625 L30.0266667,0.4340625 C13.7114286,0.4340625 0.484761905,13.453125 0.484761905,29.5134375 L0.484761905,29.5134375 Z" id="path-1"></path>
    </defs>
    <g id="Page-1" stroke="none" stroke-width="1" fill="none" fill-rule="evenodd">
        <g id="flag-vietnam" transform="translate(1.000000, 1.000000)">
            <g id="Group-4" transform="translate(0.000000, 0.033938)">
                <mask id="mask-2" fill="white">
                    <use xlink:href="#path-1"></use>
                </mask>
                <g id="Clip-2"></g>
                <polygon id="Fill-1" fill="#EB1E23" mask="url(#mask-2)" points="-14.2857143 58.5928125 74.3380952 58.5928125 74.3380952 0.4359375 -14.2857143 0.4359375"></polygon>
                <polygon id="Fill-3" fill="#FFEB00" mask="url(#mask-2)" points="29.9812381 13.4607187 34.0879048 25.3941563 47.3764762 25.3941563 36.6021905 33.1557187 40.5879048 44.9850937 29.9898095 37.9557188 19.3831429 44.9850937 23.3640952 33.1557187 12.678381 25.3941563 25.9717143 25.3941563"></polygon>
            </g>
            <path d="M59.5673333,29.5484062 C59.5673333,45.6087188 46.3406667,58.6277813 30.0254286,58.6277813 C13.7111429,58.6277813 0.48447619,45.6087188 0.48447619,29.5484062 C0.48447619,13.4880938 13.7111429,0.46809375 30.0254286,0.46809375 C46.3406667,0.46809375 59.5673333,13.4880938 59.5673333,29.5484062 Z" id="Stroke-5" stroke="#D1D3D4"></path>
        </g>
    </g>
</svg>