<?xml version="1.0" encoding="UTF-8"?>
<svg width="62px" height="61px" viewBox="0 0 62 61" version="1.1" xmlns="http://www.w3.org/2000/svg" xmlns:xlink="http://www.w3.org/1999/xlink">
    <title>flag-english</title>
    <defs>
        <path d="M0.485714286,29.514375 C0.485714286,45.5746875 13.712381,58.5946875 30.0257143,58.5946875 L30.0257143,58.5946875 C46.3419048,58.5946875 59.567619,45.5746875 59.567619,29.514375 L59.567619,29.514375 C59.567619,13.4540625 46.3419048,0.435 30.0257143,0.435 L30.0257143,0.435 C13.712381,0.435 0.485714286,13.4540625 0.485714286,29.514375 L0.485714286,29.514375 Z" id="path-1"></path>
    </defs>
    <g id="Page-1" stroke="none" stroke-width="1" fill="none" fill-rule="evenodd">
        <g id="flag-english" transform="translate(1.000000, 1.000000)">
            <g id="Group-12" transform="translate(0.000000, 0.033938)">
                <mask id="mask-2" fill="white">
                    <use xlink:href="#path-1"></use>
                </mask>
                <g id="Clip-2"></g>
                <polygon id="Fill-1" fill="#FFFFFF" mask="url(#mask-2)" points="-14.2847619 58.59375 74.3390476 58.59375 74.3390476 0.4359375 -14.2847619 0.4359375"></polygon>
                <polygon id="Fill-3" fill="#002377" mask="url(#mask-2)" points="-14.2849524 39.334125 -14.2849524 51.484125 4.65219048 39.334125"></polygon>
                <polygon id="Fill-4" fill="#002377" mask="url(#mask-2)" points="-14.2849524 7.88071875 -14.2849524 19.6960312 4.1312381 19.6960312"></polygon>
                <polygon id="Fill-5" fill="#002377" mask="url(#mask-2)" points="65.1969524 0.43565625 38.136 0.43565625 38.136 17.7972187"></polygon>
                <polygon id="Fill-6" fill="#002377" mask="url(#mask-2)" points="21.9166667 0.43565625 -5.43190476 0.43565625 21.9166667 17.9828437"></polygon>
                <polygon id="Fill-7" fill="#002377" mask="url(#mask-2)" points="-4.90809524 58.5931875 21.9166667 58.5931875 21.9166667 41.381625"></polygon>
                <polygon id="Fill-8" fill="#002377" mask="url(#mask-2)" points="74.3385714 19.696125 74.3385714 7.6951875 55.6347619 19.696125"></polygon>
                <polygon id="Fill-9" fill="#002377" mask="url(#mask-2)" points="38.136 58.5931875 64.6731429 58.5931875 38.136 41.5663125"></polygon>
                <polygon id="Fill-10" fill="#002377" mask="url(#mask-2)" points="74.3385714 51.668625 74.3385714 39.3339375 55.1138095 39.3339375"></polygon>
                <path d="M14.6715238,19.696125 L-14.2846667,1.11675 L-14.2846667,5.52675 L7.79819048,19.696125 L14.6715238,19.696125 Z M45.0286667,39.3320625 L74.3381905,58.1364375 L74.3381905,53.7283125 L51.9039048,39.3320625 L45.0286667,39.3320625 Z M68.6258095,0.436125 L38.6067619,19.696125 L45.4810476,19.696125 L74.3381905,1.1795625 L74.3381905,0.436125 L68.6258095,0.436125 Z M-14.2846667,58.008 L-14.2846667,58.593 L-8.32561905,58.593 L21.6934286,39.3320625 L14.8210476,39.3320625 L-14.2846667,58.008 Z M34.6134286,23.8539375 L74.3381905,23.8539375 L74.3381905,35.17425 L34.6134286,35.17425 L34.6134286,58.593 L25.4410476,58.593 L25.4410476,35.17425 L-14.285619,35.17425 L-14.285619,23.8539375 L25.4410476,23.8539375 L25.4410476,0.436125 L34.6134286,0.436125 L34.6134286,23.8539375 Z" id="Fill-11" fill="#C2121F" mask="url(#mask-2)"></path>
            </g>
            <path d="M59.5678095,29.548125 C59.5678095,45.6084375 46.3411429,58.6275 30.0259048,58.6275 C13.711619,58.6275 0.484952381,45.6084375 0.484952381,29.548125 C0.484952381,13.4878125 13.711619,0.46875 30.0259048,0.46875 C46.3411429,0.46875 59.5678095,13.4878125 59.5678095,29.548125 Z" id="Stroke-13" stroke="#D1D3D4"></path>
        </g>
    </g>
</svg>