<?xml version="1.0" encoding="UTF-8"?>
<svg width="62px" height="61px" viewBox="0 0 62 61" version="1.1" xmlns="http://www.w3.org/2000/svg" xmlns:xlink="http://www.w3.org/1999/xlink">
    <title>flag-spanish</title>
    <defs>
        <path d="M0.484761905,29.514375 C0.484761905,45.5746875 13.7114286,58.5946875 30.0238095,58.5946875 L30.0238095,58.5946875 C46.3419048,58.5946875 59.5666667,45.5746875 59.5666667,29.514375 L59.5666667,29.514375 C59.5666667,13.4540625 46.3419048,0.435 30.0238095,0.435 L30.0238095,0.435 C13.7114286,0.435 0.484761905,13.4540625 0.484761905,29.514375 L0.484761905,29.514375 Z" id="path-1"></path>
    </defs>
    <g id="Page-1" stroke="none" stroke-width="1" fill="none" fill-rule="evenodd">
        <g id="flag-spanish" transform="translate(1.000000, 1.000000)">
            <path d="M59.5669524,29.5485937 C59.5669524,45.6079687 46.3412381,58.6279688 30.0240952,58.6279688 C13.7117143,58.6279688 0.485047619,45.6079687 0.485047619,29.5485937 C0.485047619,13.4882812 13.7117143,0.46828125 30.0240952,0.46828125 C46.3412381,0.46828125 59.5669524,13.4882812 59.5669524,29.5485937" id="Fill-1" fill="#D52B1E"></path>
            <g id="Group-7" transform="translate(0.000000, 0.033938)">
                <mask id="mask-2" fill="white">
                    <use xlink:href="#path-1"></use>
                </mask>
                <g id="Clip-4"></g>
                <polygon id="Fill-3" fill="#FFEB00" mask="url(#mask-2)" points="-14.2857143 39.208125 74.3371429 39.208125 74.3371429 19.8225 -14.2857143 19.8225"></polygon>
                <polygon id="Fill-5" fill="#EB1E23" mask="url(#mask-2)" points="-14.2857143 58.5928125 74.3371429 58.5928125 74.3371429 39.208125 -14.2857143 39.208125"></polygon>
                <polygon id="Fill-6" fill="#EB1E23" mask="url(#mask-2)" points="-14.2857143 19.8225 74.3371429 19.8225 74.3371429 0.435 -14.2857143 0.435"></polygon>
            </g>
            <path d="M59.5669524,29.548125 C59.5669524,45.6084375 46.3402857,58.6275 30.0250476,58.6275 C13.7107619,58.6275 0.485047619,45.6084375 0.485047619,29.548125 C0.485047619,13.4878125 13.7107619,0.46875 30.0250476,0.46875 C46.3402857,0.46875 59.5669524,13.4878125 59.5669524,29.548125 Z" id="Stroke-8" stroke="#D1D3D4"></path>
        </g>
    </g>
</svg>