<svg xmlns="http://www.w3.org/2000/svg" width="30" height="30" viewBox="0 0 30 30">
  <g id="Group_1018" data-name="Group 1018" transform="translate(-1118 -3638)">
    <path id="Exclusion_2" data-name="Exclusion 2" d="M23.75,30H6.25A6.258,6.258,0,0,1,0,23.75V6.25A6.257,6.257,0,0,1,6.25,0h17.5A6.258,6.258,0,0,1,30,6.25v17.5A6.258,6.258,0,0,1,23.75,30ZM9.832,11.552v3.316h1.992V24.5h3.981V14.869h2.656l.358-3.316H15.806l0-1.662c0-.849.062-1.33,1.326-1.33H18.8V5.239H16.144c-2.946,0-4.319,1.372-4.319,4.319v1.995Z" transform="translate(1118 3638)" fill="#fff"/>
  </g>
</svg>
