<svg xmlns="http://www.w3.org/2000/svg" width="30" height="30" viewBox="0 0 30 30">
  <g id="Group_1016" data-name="Group 1016" transform="translate(-1202.495 -3638)">
    <path id="Subtraction_8" data-name="Subtraction 8" d="M25,30H5a5.006,5.006,0,0,1-5-5V5A5.006,5.006,0,0,1,5,0H25a5.006,5.006,0,0,1,5,5V25A5.006,5.006,0,0,1,25,30ZM18.365,15.382c1.707,0,1.707,1.621,1.707,2.8v5.14h3.283v-5.8c0-2.616-.477-5.036-3.94-5.036A3.469,3.469,0,0,0,16.306,14.2h-.045V12.755h-3.15V23.326h3.282V18.1C16.393,16.755,16.628,15.382,18.365,15.382Zm-10.6-2.627V23.326h3.289V12.755ZM9.406,7.5a1.9,1.9,0,1,0,1.905,1.9A1.907,1.907,0,0,0,9.406,7.5Z" transform="translate(1202.495 3638)" fill="#fff"/>
  </g>
</svg>



