<svg id="Group_577" data-name="Group 577" xmlns="http://www.w3.org/2000/svg" width="30" height="30" viewBox="0 0 30 30">
  <path id="Subtraction_13" data-name="Subtraction 13" d="M25,30H5a5.006,5.006,0,0,1-5-5V5A5.006,5.006,0,0,1,5,0H25a5.006,5.006,0,0,1,5,5V25A5.006,5.006,0,0,1,25,30ZM8.9,4.645a4.485,4.485,0,0,0-4.48,4.479V21.1a4.485,4.485,0,0,0,4.48,4.48H20.875a4.486,4.486,0,0,0,4.482-4.48V9.124a4.486,4.486,0,0,0-4.482-4.479Z" transform="translate(0 0)" fill="#fff"/>
  <path id="Path_366" data-name="Path 366" d="M646.879,788.669a3.438,3.438,0,1,0,3.438,3.438,3.441,3.441,0,0,0-3.438-3.438" transform="translate(-631.935 -777.05)" fill="#fff"/>
  <path id="Path_365" data-name="Path 365" d="M653.176,784.852H641.593a1.971,1.971,0,0,0-1.968,1.97V798.4a1.972,1.972,0,0,0,1.968,1.971h11.583a1.974,1.974,0,0,0,1.971-1.971v-11.58a1.973,1.973,0,0,0-1.971-1.97m-5.79,13.355a5.594,5.594,0,1,1,5.593-5.594,5.6,5.6,0,0,1-5.593,5.594m5.725-10.005a1.008,1.008,0,1,1,1.007-1.007,1.007,1.007,0,0,1-1.007,1.007" transform="translate(-632.443 -777.553)" fill="#fff"/>
</svg>




