<svg xmlns="http://www.w3.org/2000/svg" width="30" height="30" viewBox="0 0 30 30">
  <path id="Subtraction_12" data-name="Subtraction 12" d="M25,30H5a5.006,5.006,0,0,1-5-5V5A5.006,5.006,0,0,1,5,0H25a5.006,5.006,0,0,1,5,5V25A5.006,5.006,0,0,1,25,30ZM6.487,20.931h0a10.519,10.519,0,0,0,2.635,1.219,10.229,10.229,0,0,0,2.956.429,10.01,10.01,0,0,0,4.446-.95,10.371,10.371,0,0,0,3.243-2.437,10.589,10.589,0,0,0,1.989-3.334,10.438,10.438,0,0,0,.68-3.637v-.466a8.737,8.737,0,0,0,1.828-1.9,8.266,8.266,0,0,1-1.022.359,7.452,7.452,0,0,1-1.092.213,4.154,4.154,0,0,0,1-.876,3.121,3.121,0,0,0,.611-1.13c-.365.193-.739.367-1.111.519a5.933,5.933,0,0,1-1.183.341,4.257,4.257,0,0,0-1.183-.825,3.6,3.6,0,0,0-4.069.751,3.923,3.923,0,0,0-.769,1.167,3.5,3.5,0,0,0-.288,1.418c0,.134.006.274.017.428a3.016,3.016,0,0,0,.056.394,10.092,10.092,0,0,1-4.195-1.112,10.337,10.337,0,0,1-3.3-2.687,3.464,3.464,0,0,0-.5,1.829,3.528,3.528,0,0,0,.448,1.737,3.893,3.893,0,0,0,1.164,1.31A4.028,4.028,0,0,1,7.2,13.226v.037a3.5,3.5,0,0,0,.844,2.346,3.6,3.6,0,0,0,2.094,1.236,3.585,3.585,0,0,1-.482.109,3.247,3.247,0,0,1-.484.034c-.1,0-.214,0-.338-.014s-.23-.033-.343-.056a3.8,3.8,0,0,0,1.273,1.794,3.379,3.379,0,0,0,2.13.715A7.128,7.128,0,0,1,9.8,20.591,7.208,7.208,0,0,1,7.383,21c-.151,0-.308-.006-.466-.018S6.613,20.954,6.487,20.931Z" fill="#fff"/>
</svg>

