<svg xmlns="http://www.w3.org/2000/svg" width="20" height="20" viewBox="0 0 20 20">
  <path id="Path_757" data-name="Path 757" d="M12,2A10,10,0,1,0,22,12,10,10,0,0,0,12,2Zm0,19c-.792,0-1.812-1.475-2.436-4h4.872C13.812,19.525,12.792,21,12,21ZM9.35,16a21.779,21.779,0,0,1-.34-3.5h5.98a21.779,21.779,0,0,1-.34,3.5ZM3.025,12.5H8.01A23.15,23.15,0,0,0,8.335,16H3.95A8.926,8.926,0,0,1,3.025,12.5ZM12,3c.792,0,1.812,1.475,2.436,4H9.564C10.188,4.475,11.208,3,12,3Zm2.65,5a21.779,21.779,0,0,1,.34,3.5H9.01A21.779,21.779,0,0,1,9.35,8ZM8.01,11.5H3.025A8.926,8.926,0,0,1,3.95,8H8.335A23.15,23.15,0,0,0,8.01,11.5Zm7.98,1h4.985A8.926,8.926,0,0,1,20.05,16H15.665A23.15,23.15,0,0,0,15.99,12.5Zm0-1A23.15,23.15,0,0,0,15.665,8H20.05a8.926,8.926,0,0,1,.925,3.5ZM19.478,7H15.461a10.592,10.592,0,0,0-1.554-3.792A9.019,9.019,0,0,1,19.478,7ZM10.093,3.208A10.592,10.592,0,0,0,8.539,7H4.522A9.019,9.019,0,0,1,10.093,3.208ZM4.522,17H8.539a10.592,10.592,0,0,0,1.554,3.792A9.019,9.019,0,0,1,4.522,17Zm9.385,3.792A10.592,10.592,0,0,0,15.461,17h4.017A9.019,9.019,0,0,1,13.907,20.792Z" transform="translate(-2 -2)" fill="#fff"/>
</svg>
