<svg id="Group_1060" data-name="Group 1060" xmlns="http://www.w3.org/2000/svg" width="15.842" height="13.606" viewBox="0 0 15.842 13.606">
  <rect id="Rectangle_388" data-name="Rectangle 388" width="15.842" height="3.192" transform="translate(0 10.414)" fill="#555"/>
  <path id="Path_785" data-name="Path 785" d="M17.473,11.885v-.833a6.346,6.346,0,0,0-.108-.708,7.176,7.176,0,0,0-3.833-4.875L14.74,3.235a.285.285,0,1,0-.5-.275l-1.225,2.3a8.818,8.818,0,0,0-6.908.017L4.873,2.969a.285.285,0,0,0-.5.275L5.59,5.494a7.217,7.217,0,0,0-3.758,4.558,6.365,6.365,0,0,0-.192,1.567v.242ZM13.165,6.927a.75.75,0,1,1-.742.758V7.677A.75.75,0,0,1,13.165,6.927Zm-7.408,0a.75.75,0,1,1-.742.758V7.677A.75.75,0,0,1,5.757,6.927Z" transform="translate(-1.64 -2.813)" fill="#555" fill-rule="evenodd"/>
</svg>
