<svg id="Group_1059" data-name="Group 1059" xmlns="http://www.w3.org/2000/svg" width="14.836" height="17.917" viewBox="0 0 14.836 17.917">
  <path id="Path_783" data-name="Path 783" d="M15.716,13.463a3.874,3.874,0,0,0,1.217.833c-.1.292-.2.567-.308.833a8.963,8.963,0,0,1-.95,1.717,8.154,8.154,0,0,1-1.217,1.483,2.318,2.318,0,0,1-1.567.7,3.816,3.816,0,0,1-1.45-.35,4.033,4.033,0,0,0-1.55-.358,4.163,4.163,0,0,0-1.608.358,4.654,4.654,0,0,1-1.383.367,2.217,2.217,0,0,1-1.608-.717,8.353,8.353,0,0,1-1.275-1.592,10.774,10.774,0,0,1-1.35-2.708A9.982,9.982,0,0,1,2.1,10.8a5.932,5.932,0,0,1,.75-3.067A4.442,4.442,0,0,1,6.641,5.471a5.02,5.02,0,0,1,1.667.392,5.471,5.471,0,0,0,1.333.392,7.982,7.982,0,0,0,1.483-.467,4.931,4.931,0,0,1,2.008-.358A4.243,4.243,0,0,1,16.466,7.2a3.783,3.783,0,0,0-1.95,3.408A3.724,3.724,0,0,0,15.716,13.463Z" transform="translate(-2.097 -1.13)" fill="#555" fill-rule="evenodd"/>
  <path id="Path_784" data-name="Path 784" d="M13.669,3.128a3.91,3.91,0,0,0,.967-2.5,1.979,1.979,0,0,0,0-.358A3.59,3.59,0,0,0,13.2.687a3.921,3.921,0,0,0-1.25.95,3.634,3.634,0,0,0-.983,2.417,3.338,3.338,0,0,0,0,.342A3.041,3.041,0,0,0,13.669,3.128Z" transform="translate(-3.575 -0.27)" fill="#555" fill-rule="evenodd"/>
</svg>
