<svg xmlns="http://www.w3.org/2000/svg" width="16.668" height="15.033" viewBox="0 0 16.668 15.033">
  <g id="图层_1-2" data-name="图层 1-2" transform="translate(0 0)">
    <path id="Path_790" data-name="Path 790" d="M8.333,12.043a7.162,7.162,0,0,1-5.292-1.792.412.412,0,1,1,.583-.583A6.408,6.408,0,0,0,8.333,11.21h.933a20.2,20.2,0,0,1-.1-2.5H8.016c-.933,0-1.075-.992-.75-2.783A44.864,44.864,0,0,1,8.933-.04H.833A.834.834,0,0,0,0,.792C0,.8,0,.815,0,.827V14.16a.834.834,0,0,0,.833.833H9.858A27.75,27.75,0,0,1,9.35,12,8.284,8.284,0,0,1,8.333,12.043Zm-4.167-7.5a.417.417,0,0,1,.833,0V6.21a.417.417,0,0,1-.833,0Z" transform="translate(0.001 0.04)" fill="#555"/>
    <path id="Path_791" data-name="Path 791" d="M17.415,0H11.39A46.6,46.6,0,0,0,9.64,6.083c-.233,1.267-.15,1.8-.067,1.8h2.083v.45a24.748,24.748,0,0,0,.1,2.758,5.329,5.329,0,0,0,2.867-1.383.412.412,0,0,1,.583.583h0a6.092,6.092,0,0,1-3.383,1.667A25.693,25.693,0,0,0,12.306,15h5.108a.834.834,0,0,0,.833-.833V.833A.834.834,0,0,0,17.415,0ZM14.081,6.25a.417.417,0,1,1-.833,0V4.583a.417.417,0,1,1,.833,0Z" transform="translate(-1.58 0.033)" fill="#555"/>
  </g>
</svg>



