<?xml version="1.0" encoding="utf-8"?>
<!-- Generator: Adobe Illustrator 24.2.1, SVG Export Plug-In . SVG Version: 6.00 Build 0)  -->
<svg version="1.1" id="Layer_1" xmlns="http://www.w3.org/2000/svg" xmlns:xlink="http://www.w3.org/1999/xlink" x="0px" y="0px"
	 viewBox="0 0 415.06 84.53" style="enable-background:new 0 0 415.06 84.53;" xml:space="preserve">
<style type="text/css">
	.st0{fill:#FFFFFF;}
</style>
<path class="st0" d="M40.05,16.31v25.16L26.78,5.08c-1.51-4.14,2.09-1.46,2.09-1.46l7.58,5.62C40.05,11.92,40.05,16.31,40.05,16.31
	 M26.78,77.86l13.27-36.39L2.4,54.3c-4.28,1.46-1.52-2.02-1.52-2.02l5.82-7.32c2.77-3.48,7.31-3.48,7.31-3.48s-4.54,0-7.31-3.48
	l-5.82-7.32c0,0-2.77-3.48,1.52-2.02l37.65,12.82v0v25.17c0,0,0,4.39-3.6,7.07l-7.58,5.62C28.87,79.33,25.27,82.01,26.78,77.86"/>
<path class="st0" d="M357.89,62.34h3.4v-7.3l6.32-11.21h-3.65l-4.3,8.17h-0.06l-4.33-8.17h-3.71L357.89,55V62.34z M340.95,62.34
	h3.37V46.69h4.94l0.93-2.87h-14.64v2.87h5.39V62.34z M329.67,62.34h3.37V43.82h-3.37V62.34z M316.79,52.36v-5.79h1.55
	c1.01,0,1.63,0.22,2.08,0.53c0.81,0.48,1.24,1.35,1.24,2.33c0,1.15-0.51,1.99-1.29,2.44c-0.56,0.31-1.18,0.48-2.05,0.48H316.79z
	 M313.42,62.34h3.37v-7.22h1.6c0.45,0.11,1.12,0.87,2.02,2.53l2.67,4.69h3.88l-3.09-5.39c-0.98-1.69-1.74-2.7-2.3-3.01v-0.06
	c2.14-0.67,3.62-2.3,3.62-4.78c0-1.88-0.79-3.6-2.75-4.52c-0.98-0.48-2.22-0.76-3.96-0.76h-5.06V62.34z M300.45,59.78
	c-3.43,0-5.73-2.44-5.73-6.63c0-4.21,2.3-6.66,5.73-6.66c3.51,0,5.73,2.56,5.73,6.66C306.18,57.34,303.85,59.78,300.45,59.78
	 M300.45,62.62c5.39,0,9.33-3.79,9.33-9.47c0-5.59-3.85-9.5-9.33-9.5s-9.33,3.88-9.33,9.5C291.12,58.82,295,62.62,300.45,62.62
	 M271.83,62.34h3.37v-8.01h8.85v8.01h3.4V43.82h-3.4v7.64h-8.85v-7.64h-3.37V62.34z M260.22,62.34h3.37V46.69h4.94l0.93-2.87h-14.63
	v2.87h5.39V62.34z M244.67,62.62c3.4,0,5.82-1.18,6.97-3.57c0.48-0.95,0.7-2.19,0.7-3.62v-11.6h-3.37v11.35
	c0,1.01-0.17,1.85-0.51,2.53c-0.65,1.32-1.94,2.08-3.79,2.08c-1.85,0-3.15-0.76-3.79-2.08c-0.34-0.67-0.51-1.52-0.51-2.5V43.82H237
	v11.6c0,1.4,0.22,2.64,0.7,3.6C238.83,61.44,241.24,62.62,244.67,62.62 M224.38,54.95l1.35-3.65c0.51-1.43,0.79-2.25,0.95-2.89h0.06
	c0.17,0.62,0.42,1.46,0.93,2.86l1.29,3.68H224.38z M218.14,62.34h3.51l1.74-4.63h6.6l1.8,4.63h3.65L228,43.74h-2.7L218.14,62.34z"/>
<path class="st0" d="M411.89,29.27h-3.4v5.87c-0.73,0.34-1.85,0.56-3.09,0.56c-3.99,0-6.32-2.61-6.32-6.6
	c0-3.93,2.36-6.68,6.83-6.68c1.99,0,3.65,0.51,5.11,1.24V20.5c-1.4-0.5-3.2-0.93-5.37-0.93c-6.15,0-10.17,4.13-10.17,9.75
	c0,5.31,3.59,9.21,9.66,9.21c2.59,0,5.06-0.65,6.74-1.49V29.27z M391.86,38.26V19.75h-3.4v9.89c0,1.01,0.03,2.14,0.06,3.12h-0.06
	c-0.56-0.87-1.24-1.77-2.05-2.86l-7.75-10.14h-3.34v18.51h3.37V27.75c0-1.07,0-2.14-0.06-2.86h0.06c0.62,0.84,1.26,1.77,2.08,2.81
	l8.03,10.56H391.86z M367.4,38.26h3.37V19.75h-3.37V38.26z M344.22,38.26h3.37V27.72c0-0.65,0-1.6-0.03-2.33h0.06
	c0.36,0.7,0.87,1.35,1.26,1.91l4.05,5.82h1.54l3.65-5.67c0.34-0.51,1.01-1.55,1.26-2.08h0.06c-0.06,0.73-0.06,1.69-0.06,2.44v10.45
	h3.4V19.75h-3.09l-4.44,6.88c-0.65,0.98-1.12,1.8-1.52,2.5h-0.06c-0.42-0.73-0.9-1.43-1.55-2.39l-4.86-6.99h-3.06V38.26z
	 M330.68,30.87l1.35-3.65c0.51-1.43,0.79-2.25,0.95-2.89h0.06c0.17,0.62,0.42,1.46,0.93,2.86l1.29,3.68H330.68z M324.45,38.26h3.51
	l1.74-4.63h6.6l1.8,4.63h3.65l-7.45-18.6h-2.7L324.45,38.26z M322.24,29.27h-3.4v5.87c-0.73,0.34-1.85,0.56-3.09,0.56
	c-3.99,0-6.32-2.61-6.32-6.6c0-3.93,2.36-6.68,6.83-6.68c1.99,0,3.65,0.51,5.11,1.24V20.5c-1.41-0.5-3.2-0.93-5.37-0.93
	c-6.15,0-10.17,4.13-10.17,9.75c0,5.31,3.6,9.21,9.66,9.21c2.59,0,5.06-0.65,6.74-1.49V29.27z M287.02,30.87l1.35-3.65
	c0.51-1.43,0.79-2.25,0.95-2.89h0.06c0.17,0.62,0.42,1.46,0.93,2.86l1.29,3.68H287.02z M280.78,38.26h3.51l1.74-4.63h6.6l1.8,4.63
	h3.65l-7.45-18.6h-2.7L280.78,38.26z M273.21,38.26h3.37V22.61h4.94l0.93-2.87h-14.64v2.87h5.39V38.26z M258.98,38.26h9.94v-2.86
	h-6.57V19.75h-3.37V38.26z M245.44,30.87l1.35-3.65c0.51-1.43,0.79-2.25,0.95-2.89h0.06c0.17,0.62,0.42,1.46,0.93,2.86l1.29,3.68
	H245.44z M239.2,38.26h3.51l1.74-4.63h6.6l1.8,4.63h3.65l-7.44-18.6h-2.7L239.2,38.26z M218.14,38.26h3.37V27.72
	c0-0.65,0-1.6-0.03-2.33h0.06c0.36,0.7,0.87,1.35,1.26,1.91l4.04,5.82h1.55l3.65-5.67c0.34-0.51,1.01-1.55,1.26-2.08h0.06
	c-0.06,0.73-0.06,1.69-0.06,2.44v10.45h3.4V19.75h-3.09l-4.44,6.88c-0.65,0.98-1.12,1.8-1.52,2.5h-0.06
	c-0.42-0.73-0.9-1.43-1.54-2.39l-4.86-6.99h-3.06V38.26z"/>
<path class="st0" d="M190.23,43.87v7.78c-0.97,0.62-3.18,1.5-6.1,1.5c-3.18,0-5.21-1.41-5.21-4.33c0-1.77,0.62-2.83,1.85-3.62
	c1.15-0.71,2.83-1.06,4.95-1.15L190.23,43.87z M193.32,62.52h10.96c-0.71-2.3-0.71-5.65-0.71-8.22V35.57c0-10.16-5.3-15.9-18.2-15.9
	c-6.63,0-12.28,1.59-17.23,4.06l4.15,8.39c3-1.59,7.07-2.56,10.6-2.56c4.51,0,7.33,1.59,7.33,5.48v0.44l-6.63,0.26
	c-4.24,0.18-8.04,0.97-11.04,2.56c-4.33,2.3-6.98,5.74-6.98,11.4c0,8.04,6.01,13.69,14.22,13.69c5.21,0,8.83-1.94,11.66-4.42
	L193.32,62.52z M140.8,42.19c-3.98,0-5.92-3.18-5.92-6.36c0-4.42,2.56-6.45,5.74-6.45c4.06,0,6.1,3.36,6.1,6.54
	C146.72,40.07,144.15,42.19,140.8,42.19 M141.77,74.44c-6.63,0-10.43-2.38-10.43-5.83c0-1.85,0.97-3.18,1.77-3.89
	c4.24,2.21,17.58,0.97,17.58,5.92C150.69,73.21,146.45,74.44,141.77,74.44 M139.82,83.45c15.9,0,23.41-6.8,23.41-14.31
	c0-15.64-27.48-8.83-27.48-15.9c0-0.44,0-0.88,0.35-1.86c1.24,0.35,3,0.53,4.77,0.53c10.69,0,18.2-6.1,18.2-15.73
	c0-3.45-1.06-6.71-3-9.28c0.71-0.27,1.94-0.35,2.47-0.35c1.06,0,2.39,0.18,3.53,0.44l2.47-9.19c-0.71-0.09-2.12-0.18-3-0.18
	c-6.01,0-8.75,1.5-11.13,3.71c-0.35,0.35-0.62,0.53-1.06,0.27c-1.77-1.06-4.86-1.94-8.75-1.94c-12.9,0-18.11,8.39-18.11,15.73
	c0,5.48,2.47,10.6,7.33,13.17c-3.36,1.86-5.57,4.77-5.57,7.69c0,2.12,0.97,4.15,2.74,5.12c-3.8,1.33-7.42,4.77-7.42,9.63
	C119.59,77.98,126.66,83.45,139.82,83.45 M48.94,62.52h13.34V33.89c2.39-1.77,5.48-2.74,8.04-2.74c4.95,0,5.48,3.54,5.48,7.6v23.77
	h13.34V34.77v-0.88c2.39-1.77,5.39-2.74,7.95-2.74c4.95,0,5.57,3.36,5.57,7.42v23.94H116V35.13c0-11.66-7.16-15.46-14.84-15.46
	c-4.33,0-9.63,1.85-14.67,5.92c-2.21-3.71-6.1-5.92-11.4-5.92c-5.04,0-9.81,2.38-13.7,5.3l-1.24-4.24H48.94V62.52z"/>
</svg>
